<svg width="22" height="22" viewBox="0 0 22 22" fill="none" xmlns="http://www.w3.org/2000/svg">
<path d="M19.2531 9.89528V4.09745C19.2531 2.81852 18.7074 2.30695 17.3517 2.30695H13.9071C12.5515 2.30695 12.0058 2.81852 12.0058 4.09745V9.89528C12.0058 11.1742 12.5515 11.6858 13.9071 11.6858H17.3517C18.7074 11.6858 19.2531 11.1742 19.2531 9.89528Z" fill="white"/>
<path d="M10.3006 11.771V17.5689C10.3006 18.8478 9.75495 19.3594 8.39928 19.3594H4.95469C3.59902 19.3594 3.05334 18.8478 3.05334 17.5689V11.771C3.05334 10.4921 3.59902 9.98053 4.95469 9.98053H8.39928C9.75495 9.98053 10.3006 10.4921 10.3006 11.771Z" fill="white"/>
<path d="M19.2531 17.5689V15.1816C19.2531 13.9026 18.7074 13.3911 17.3517 13.3911H13.9071C12.5515 13.3911 12.0058 13.9026 12.0058 15.1816V17.5689C12.0058 18.8478 12.5515 19.3594 13.9071 19.3594H17.3517C18.7074 19.3594 19.2531 18.8478 19.2531 17.5689Z" fill="white"/>
<path d="M10.3006 6.48479V4.09745C10.3006 2.81852 9.75495 2.30695 8.39928 2.30695H4.95469C3.59902 2.30695 3.05334 2.81852 3.05334 4.09745V6.48479C3.05334 7.76372 3.59902 8.27529 4.95469 8.27529H8.39928C9.75495 8.27529 10.3006 7.76372 10.3006 6.48479Z" fill="white"/>
</svg>
